# xmcd
#
# Track frame offsets:
#	150
#	14858
#	29911
#	42864
#	56356
#	70934
#	83955
#	97574
#	113078
#	128337
#	141331
#	156755
#	170575
#	186389
#	197184
#	213321
#	227318
#	241011
#
# Disc length: 3424 seconds
#
# Revision: 0
# Processed by: cddbd v1.5.2PL0 Copyright (c) Steve Scherf et al.
# Submitted via: EasyCDDAExtractor 16.0.6.1
#
DISCID=f10d5e12
DTITLE=Αγγελόπουλος Μανώλης - Τραγούδια 45 στροφές-Αγγελόπουλος Μανώλης 3
DYEAR=1998
DGENRE=Λαϊκή
TTITLE0=Αγγελόπουλος Μανώλης-Βασιλείου Αννούλα-Χιώτης Μ. - Ορκίστηκα [1964, Ν.
TTITLE0=Δαλέζιου]
TTITLE1=Αγγελόπουλος Μανώλης - Φεύγω μαννούλα μου γλυκειά (Ο Καναδάς)[1964, Μ.
TTITLE1=Αγγελόπουλου-Μ.Αλεξάκη]
TTITLE2=Αγγελόπουλος Μανώλης-Βασιλείου Αννούλα - Σήμερα ξανασμίγουμε [1966, Μπ
TTITLE2=Δαλιάνη-Χρ. Κολοκοτρώνη]
TTITLE3=Αγγελόπουλος Μανώλης-Βασιλείου Αννούλα - Κάθε μέρα κλαις [1963, Ν. Δαλ
TTITLE3=έζιου-Μ. Αγγελόπουλου]
TTITLE4=Αγγελόπουλος Μανώλης-Λίδια Γιώτα - Έφυγες-έφυγες [1960, Π. Ατταλίδου-Κ
TTITLE4=Βίρβου]
TTITLE5=Αγγελόπουλος Μανώλης-Βασιλείου Αννούλα - Δεν φταις εσύ-δεν φταις εσύ [
TTITLE5=1966, Γ. Κοινούση]
TTITLE6=Αγγελόπουλος Μανώλης - Άσε με στον πόνο μου [1962, Γ. Καραμπεσίνη]
TTITLE7=Αγγελόπουλος Μανώλης-Βασιλείου Αννούλα - Αδικία [1963, Μ. Αγγελόπουλου
TTITLE7=Ν. Δαλέζιου]
TTITLE8=Αγγελόπουλος Μανώλης-Βασιλείου Αννούλα-Καλδάρας Α. - Όση γλύκα έχουν τ
TTITLE8=α χείλη σου [1964, ανέκδοτο, Α. Καλδάρα]
TTITLE9=Αγγελόπουλος Μανώλης - Αυτό το βράδυ [1962, Μ. Αγγελόπουλου-Μάτα Νταλα
TTITLE9=γιάννη]
TTITLE10=Αγγελόπουλος Μανώλης-Πάνου Πόλυ - Θλιμμένη Ναργκίς [1962, Μπάμπη Μπακ
TTITLE10=άλη]
TTITLE11=Αγγελόπουλος Μανώλης-Βασιλείου Αννούλα - Ποιο παράπονο, ποιος πόνος [
TTITLE11=1962, Χρ. Κολοκοτρώνη]
TTITLE12=Αγγελόπουλος Μανώλης - Μαϊλί [1961, Μπάμπη Μπακάλη-Δ. Γκούτη]
TTITLE13=Αγγελόπουλος Μανώλης - Τι σού έκανα και κλαις [1966, Μ. Αγγελόπουλου-
TTITLE13=Ν. Μυλωνά-Χαρ. Βασιλειάδη]
TTITLE14=Αγγελόπουλος Μανώλης - Τι έχω φταίξει [1962, Μ. Αγγελόπουλου-Μιχ. Αλε
TTITLE14=ξάκη]
TTITLE15=Αγγελόπουλος Μανώλης - Κάτσε κοντά μου αγάπη μου [1964, Μ. Καράμπελα]
TTITLE16=Αγγελόπουλος Μανώλης-Βασιλείου Αννούλα - Σε πήρανε από κοντά μου [196
TTITLE16=4, Μ. Αγγελόπουλου-Ε. Ράντη]
TTITLE17=Αγγελόπουλος Μανώλης - Τσιγγάνος θα πεθάνω [1961, Θ. Δερβενιώτη-Κ. Βί
TTITLE17=ρβου]
EXTD=
EXTT0=
EXTT1=
EXTT2=
EXTT3=
EXTT4=
EXTT5=
EXTT6=
EXTT7=
EXTT8=
EXTT9=
EXTT10=
EXTT11=
EXTT12=
EXTT13=
EXTT14=
EXTT15=
EXTT16=
EXTT17=
PLAYORDER=
